<?xml version="1.0" encoding="UTF-8" standalone="no"?>
<!-- Created with Inkscape (http://www.inkscape.org/) -->

<svg
   xmlns:dc="http://purl.org/dc/elements/1.1/"
   xmlns:cc="http://creativecommons.org/ns#"
   xmlns:rdf="http://www.w3.org/1999/02/22-rdf-syntax-ns#"
   xmlns:svg="http://www.w3.org/2000/svg"
   xmlns="http://www.w3.org/2000/svg"
   version="1.1"
   width="220"
   height="300"
   viewBox="0 0 62.088889 84.666668"
   id="svg2"
   xml:space="preserve"
   style="fill-rule:evenodd"><metadata
   id="metadata27"><rdf:RDF><cc:Work
       rdf:about=""><dc:format>image/svg+xml</dc:format><dc:type
         rdf:resource="http://purl.org/dc/dcmitype/StillImage" /><dc:title></dc:title></cc:Work></rdf:RDF></metadata>
 <defs
   id="defs4"><style
     type="text/css"
     id="style6" /><style
     type="text/css"
     id="style6-4" /></defs>
 <rect
   width="46.207966"
   height="46.207966"
   x="8.0339975"
   y="26.984364"
   id="rect10"
   style="fill:#ffffff" /><path
   d="m 54.242094,68.977886 0,4.214567 -46.2077054,0 0,-4.214567 46.2077054,0 z M 0.28221727,30.856022 8.0343886,23.103851 l 0,-19.2017606 5.1638234,0 0,4.578145 4.178807,0 0,-4.578145 5.00401,0 0,4.8551198 L 31.138241,-2.29528e-6 39.868667,8.7304229 l 0,-4.8283325 5.00401,0 0,4.578145 4.178937,0 0,-4.578145 5.19048,0 0,19.2018906 7.752042,7.752041 -7.752042,7.752041 0,21.432642 L 43.525773,49.324384 31.138241,61.712046 18.75058,49.324384 8.0343886,60.040705 l 0,-21.432512 -7.75217133,-7.752171 z m 7.75217133,30.481913 0,6.274193 46.2077054,0 0,-6.274193 L 43.525773,50.621614 31.138241,63.009276 18.75058,50.621614 8.0343886,61.337935 z"
   id="path12"
   style="fill:#0068ac" /><polygon
   points="104.992,161.623 127.242,139.373 104.992,117.123 82.7424,139.373 "
   transform="matrix(1.3003508,0,0,1.3003508,-105.38897,-150.37699)"
   id="polygon14"
   style="fill:#ffffff" /><path
   d="m 34.524875,25.143061 c 0.990477,0 1.796825,0.460714 1.796825,1.036639 0,0.575926 -0.806348,1.03664 -1.796825,1.03664 -1.013623,0 -1.819841,-0.460714 -1.819841,-1.03664 0,-0.575925 0.806218,-1.036639 1.819841,-1.036639 z m -3.132805,1.474337 c 0.575795,0 1.059526,0.322487 1.059526,0.737169 0,0.391536 -0.483731,0.737039 -1.059526,0.737039 -0.575925,0 -1.03664,-0.345503 -1.03664,-0.737039 0,-0.414682 0.460715,-0.737169 1.03664,-0.737169 z m 3.616536,1.266932 c 0.529762,0 0.944444,0.299471 0.944444,0.66799 0,0.36865 -0.414682,0.668121 -0.944444,0.668121 -0.506747,0 -0.921429,-0.299471 -0.921429,-0.668121 0,-0.368519 0.414682,-0.66799 0.921429,-0.66799 z M 25.541011,11.690281 c -0.04616,0.09206 -0.06918,0.207276 -0.09219,0.276455 -1.243916,0.990477 -2.533994,1.911906 -3.547487,3.086773 -1.497354,1.681613 -2.487832,3.662568 -2.902513,5.874074 -0.230293,1.312965 -0.36852,2.649075 -0.875397,3.916007 -1.036509,2.510977 -3.225,3.754893 -6.772489,3.455422 1.013622,-7.947354 6.680421,-14.42037 14.190076,-16.608731 z m 5.597621,39.137569 c -11.011111,0 -19.971958,-8.960848 -19.971958,-19.971958 0,-0.276325 0.02302,-0.575796 0.02302,-0.85225 2.349734,1.451191 5.735977,1.888889 9.974471,0.66799 -1.727646,-3.132805 -0.760185,-6.196562 2.073279,-7.141006 2.142198,-0.737169 4.422753,-0.483731 5.712831,1.727646 0.714023,1.220899 0.299471,3.363227 -1.566532,3.823941 1.174866,-2.580026 -1.082673,-3.547487 -2.718124,-2.833464 -1.681613,0.737169 -1.70463,3.363227 -0.345503,4.630159 0.714023,0.691136 1.543386,1.105818 2.418653,1.244046 1.382142,0.230292 2.67222,-0.391666 4.238623,-0.760185 1.796695,-0.437699 4.422883,-0.299471 6.012302,0.783201 3.777779,2.55688 1.981084,6.795503 0.806217,8.039419 0.06918,-0.737169 -0.02302,-1.612565 -0.276454,-2.464815 -0.322487,-1.151851 -1.059656,-2.188361 -2.027117,-2.718254 -1.819841,-0.967461 -4.146429,0.0922 -4.284656,2.211507 -0.115081,1.52037 0.691137,3.086773 1.566403,4.26151 0.575925,0.806347 1.33611,1.589548 2.165474,2.326587 -0.990607,-0.02302 -2.303572,-0.09206 -3.363227,-0.115081 -2.07328,0.04603 -2.418783,0.967461 -2.418783,1.865874 l 9.00701,0 c -1.03664,1.312964 -3.823942,2.764285 -6.841666,2.487831 -1.266932,-0.115211 -3.616535,-0.829234 -5.643782,-2.027117 -3.363098,-1.981085 -5.666669,-5.183068 -3.846958,-8.454101 2.18849,-2.695237 5.851058,0.115211 3.155951,2.971562 4.4459,-1.658598 3.40926,-7.762964 -1.589419,-7.809127 -3.985185,0.18439 -6.680422,4.998809 -4.422883,10.020633 1.197883,2.718124 3.478309,4.44577 6.035318,5.851059 2.649075,1.451191 5.436377,2.18836 8.131612,2.119182 -0.644976,0.06918 -1.313096,0.115211 -2.004102,0.115211 z m 0,-39.943786 c 11.034126,0 19.971957,8.937831 19.971957,19.971828 0,8.131613 -4.860581,15.111376 -11.840344,18.244312 2.119182,-1.151851 4.054234,-2.902513 5.666669,-5.321296 1.013623,-1.497224 2.165474,-3.317065 2.902513,-5.321165 0.276455,-0.783202 1.267062,-3.800926 0.161243,-4.330689 -1.704629,-0.829363 -3.731746,3.225 -4.169444,3.892991 0.276454,-2.280556 0.276454,-4.584127 -0.276325,-6.979763 -0.575925,-1.727777 -1.612565,-3.040741 -2.925529,-4.07738 -1.52037,-1.197884 -3.294179,-1.958069 -5.137036,-2.55701 -1.33611,-0.414552 -2.810318,-0.829234 -4.054234,-1.197753 -1.912036,-0.575926 -4.008201,-1.405159 -4.883597,-3.386244 -0.230292,-0.575925 -0.345503,-1.220899 -0.161244,-1.958068 0.115211,-0.575925 0.575926,-1.289948 1.243916,-1.313094 0.299471,-0.02302 0.691136,-0.02302 1.243915,0.460714 0.276455,0.253438 0.460715,0.414682 0.806218,0.230422 0.368649,-0.18426 0.714153,-0.691136 0.18439,-0.921428 -0.36865,-0.138228 -0.875396,-0.253439 -1.128835,-0.575926 -0.207276,-0.230292 -0.138227,-0.552779 0.0922,-0.783201 0.276455,-0.276455 0.829234,-0.322487 1.151721,0.06918 0.460714,0.460714 0.921428,0.852249 1.589549,0.276324 0.276454,-0.253308 0.575795,-0.48373 0.598941,-0.737039 0.04603,-0.506876 -0.575925,-0.944575 -0.875396,-1.244045 -0.345503,-0.345504 -0.691136,-0.737039 -0.990607,-0.944445 -0.85225,-0.598942 -1.88889,-1.013494 -2.672091,-0.898282 -0.02302,-0.0922 -0.04603,-0.18439 -0.09207,-0.276455 1.174737,-0.207406 2.37262,-0.322487 3.59352,-0.322488 z"
   id="path16"
   style="fill:#0068ac" /><path
   d="m 103.287,179.437 2.049,0 0,-6.238 1.1,0 0,7.338 -0.241,0 0,0 -7.1577,0 0,-7.338 1.0997,0 0,6.238 2.05,0 0,-6.238 1.1,0 z"
   transform="matrix(1.3003508,0,0,1.3003508,-105.38897,-150.37699)"
   id="_153342272"
   style="fill:#0068ac" /><path
   d="m 112.338,173.199 -2.533,3.362 2.585,3.976 -1.312,0 -2.204,-3.391 -0.103,0 0,3.391 -1.1,0 0,-7.338 1.1,0 0,2.847 0.045,0 2.145,-2.847 z"
   transform="matrix(1.3003508,0,0,1.3003508,-105.38897,-150.37699)"
   id="_153342200"
   style="fill:#0068ac" /><path
   d="m 116.24,177.146 -2.039,0 0,2.291 2.413,0 0,1.1 -3.513,0 0,-7.338 3.513,0 0,1.1 -2.413,0 0,1.747 2.039,0 z"
   transform="matrix(1.3003508,0,0,1.3003508,-105.38897,-150.37699)"
   id="_153294688"
   style="fill:#0068ac" /><path
   d="m 93.947,180.537 -1.1,0 0,-7.338 1.1,0 0,5.062 2.7553,-5.062 1.1,0 0,7.338 -1.1,0 0,-5.062 z"
   transform="matrix(1.3003508,0,0,1.3003508,-105.38897,-150.37699)"
   id="_153294616"
   style="fill:#0068ac" /><path
   d="m 13.416931,74.842468 0,1.430386 -3.420313,0 0,2.273013 0.995809,0 c 1.612044,0 2.919287,1.307243 2.919287,2.919288 0,1.612045 -1.307243,2.919287 -2.919287,2.919287 l -2.4261949,0 0,-9.541974 4.8506989,0 z m -3.420313,5.133785 0,2.977803 0.995809,0 c 0.822211,0 1.488901,-0.666689 1.488901,-1.488901 0,-0.822212 -0.66669,-1.488902 -1.488901,-1.488902 l -0.995809,0 z"
   id="_153294544"
   style="fill:#0068ac" /><path
   d="m 122.711,173.199 -2.533,3.362 2.585,3.976 -1.312,0 -2.204,-3.391 -0.103,0 0,3.391 -1.1,0 0,-7.338 1.1,0 0,2.847 0.045,0 2.145,-2.847 z"
   transform="matrix(1.3003508,0,0,1.3003508,-105.38897,-150.37699)"
   id="_153294472"
   style="fill:#0068ac" />
</svg>